%TF.GenerationSoftware,KiCad,Pcbnew,(5.1.6-0)*%
%TF.CreationDate,2022-10-03T16:44:33+02:00*%
%TF.ProjectId,Ouidire_v1,4f756964-6972-4655-9f76-312e6b696361,rev?*%
%TF.SameCoordinates,Original*%
%TF.FileFunction,Soldermask,Top*%
%TF.FilePolarity,Negative*%
%FSLAX46Y46*%
G04 Gerber Fmt 4.6, Leading zero omitted, Abs format (unit mm)*
G04 Created by KiCad (PCBNEW (5.1.6-0)) date 2022-10-03 16:44:33*
%MOMM*%
%LPD*%
G01*
G04 APERTURE LIST*
%ADD10R,1.800000X1.800000*%
%ADD11O,1.800000X1.800000*%
%ADD12R,1.700000X1.700000*%
%ADD13O,1.700000X1.700000*%
G04 APERTURE END LIST*
D10*
%TO.C,PCM5102*%
X127000000Y-76755001D03*
D11*
X127000000Y-79295001D03*
X127000000Y-81835001D03*
X127000000Y-84375001D03*
X127000000Y-86915001D03*
X127000000Y-89455001D03*
%TD*%
D10*
%TO.C,JST_LedBtn1*%
X148590000Y-112268000D03*
D11*
X148590000Y-109728000D03*
X148590000Y-107188000D03*
X148590000Y-104648000D03*
%TD*%
%TO.C,Coil1*%
X142240000Y-119380000D03*
D10*
X142240000Y-116840000D03*
%TD*%
%TO.C,Coil2*%
X153670000Y-127000000D03*
D11*
X151130000Y-127000000D03*
%TD*%
D12*
%TO.C,D1*%
X147320000Y-124460000D03*
D13*
X147320000Y-116840000D03*
%TD*%
D10*
%TO.C,VUSB+*%
X154940000Y-116840000D03*
%TD*%
%TO.C,R1*%
G36*
G01*
X150720656Y-86755800D02*
X149405744Y-86755800D01*
G75*
G02*
X149138200Y-86488256I0J267544D01*
G01*
X149138200Y-85498344D01*
G75*
G02*
X149405744Y-85230800I267544J0D01*
G01*
X150720656Y-85230800D01*
G75*
G02*
X150988200Y-85498344I0J-267544D01*
G01*
X150988200Y-86488256D01*
G75*
G02*
X150720656Y-86755800I-267544J0D01*
G01*
G37*
G36*
G01*
X150720656Y-83780800D02*
X149405744Y-83780800D01*
G75*
G02*
X149138200Y-83513256I0J267544D01*
G01*
X149138200Y-82523344D01*
G75*
G02*
X149405744Y-82255800I267544J0D01*
G01*
X150720656Y-82255800D01*
G75*
G02*
X150988200Y-82523344I0J-267544D01*
G01*
X150988200Y-83513256D01*
G75*
G02*
X150720656Y-83780800I-267544J0D01*
G01*
G37*
%TD*%
%TO.C,R2*%
G36*
G01*
X150720656Y-77430800D02*
X149405744Y-77430800D01*
G75*
G02*
X149138200Y-77163256I0J267544D01*
G01*
X149138200Y-76173344D01*
G75*
G02*
X149405744Y-75905800I267544J0D01*
G01*
X150720656Y-75905800D01*
G75*
G02*
X150988200Y-76173344I0J-267544D01*
G01*
X150988200Y-77163256D01*
G75*
G02*
X150720656Y-77430800I-267544J0D01*
G01*
G37*
G36*
G01*
X150720656Y-80405800D02*
X149405744Y-80405800D01*
G75*
G02*
X149138200Y-80138256I0J267544D01*
G01*
X149138200Y-79148344D01*
G75*
G02*
X149405744Y-78880800I267544J0D01*
G01*
X150720656Y-78880800D01*
G75*
G02*
X150988200Y-79148344I0J-267544D01*
G01*
X150988200Y-80138256D01*
G75*
G02*
X150720656Y-80405800I-267544J0D01*
G01*
G37*
%TD*%
%TO.C,R3*%
G36*
G01*
X152422456Y-111470000D02*
X151107544Y-111470000D01*
G75*
G02*
X150840000Y-111202456I0J267544D01*
G01*
X150840000Y-110212544D01*
G75*
G02*
X151107544Y-109945000I267544J0D01*
G01*
X152422456Y-109945000D01*
G75*
G02*
X152690000Y-110212544I0J-267544D01*
G01*
X152690000Y-111202456D01*
G75*
G02*
X152422456Y-111470000I-267544J0D01*
G01*
G37*
G36*
G01*
X152422456Y-108495000D02*
X151107544Y-108495000D01*
G75*
G02*
X150840000Y-108227456I0J267544D01*
G01*
X150840000Y-107237544D01*
G75*
G02*
X151107544Y-106970000I267544J0D01*
G01*
X152422456Y-106970000D01*
G75*
G02*
X152690000Y-107237544I0J-267544D01*
G01*
X152690000Y-108227456D01*
G75*
G02*
X152422456Y-108495000I-267544J0D01*
G01*
G37*
%TD*%
D11*
%TO.C,SeeedRFID1*%
X132080000Y-132080000D03*
X132080000Y-129540000D03*
X132080000Y-127000000D03*
X132080000Y-124460000D03*
X132080000Y-121920000D03*
D10*
X132080000Y-119380000D03*
%TD*%
%TO.C,TTGO_T8_V1.7_L1*%
X154940000Y-76755001D03*
D11*
X154940000Y-79295001D03*
X154940000Y-81835001D03*
X154940000Y-84375001D03*
X154940000Y-86915001D03*
X154940000Y-89455001D03*
X154940000Y-91995001D03*
X154940000Y-94535001D03*
X154940000Y-97075001D03*
X154940000Y-99615001D03*
X154940000Y-102155001D03*
X154940000Y-104695001D03*
X154940000Y-107235001D03*
X154940000Y-109775001D03*
X154940000Y-112315001D03*
%TD*%
%TO.C,TTGO_T8_V1.7_R1*%
X132080000Y-112315001D03*
X132080000Y-109775001D03*
X132080000Y-107235001D03*
X132080000Y-104695001D03*
X132080000Y-102155001D03*
X132080000Y-99615001D03*
X132080000Y-97075001D03*
X132080000Y-94535001D03*
X132080000Y-91995001D03*
X132080000Y-89455001D03*
X132080000Y-86915001D03*
X132080000Y-84375001D03*
X132080000Y-81835001D03*
X132080000Y-79295001D03*
D10*
X132080000Y-76755001D03*
%TD*%
M02*
