M48
; DRILL file {KiCad (5.1.6-0)} date Monday, October 03, 2022 at 04:44:43 PM
; FORMAT={-:-/ absolute / metric / decimal}
; #@! TF.CreationDate,2022-10-03T16:44:43+02:00
; #@! TF.GenerationSoftware,Kicad,Pcbnew,(5.1.6-0)
FMAT,2
METRIC
T1C0.400
T2C0.800
T3C1.000
%
G90
G05
T1
X128.27Y-96.52
X148.59Y-87.63
X152.245Y-95.405
T2
X147.32Y-116.84
X147.32Y-124.46
T3
X148.59Y-104.648
X148.59Y-107.188
X148.59Y-109.728
X148.59Y-112.268
X154.94Y-116.84
X132.08Y-119.38
X132.08Y-121.92
X132.08Y-124.46
X132.08Y-127.0
X132.08Y-129.54
X132.08Y-132.08
X151.13Y-127.0
X153.67Y-127.0
X127.0Y-76.755
X127.0Y-79.295
X127.0Y-81.835
X127.0Y-84.375
X127.0Y-86.915
X127.0Y-89.455
X154.94Y-76.755
X154.94Y-79.295
X154.94Y-81.835
X154.94Y-84.375
X154.94Y-86.915
X154.94Y-89.455
X154.94Y-91.995
X154.94Y-94.535
X154.94Y-97.075
X154.94Y-99.615
X154.94Y-102.155
X154.94Y-104.695
X154.94Y-107.235
X154.94Y-109.775
X154.94Y-112.315
X142.24Y-116.84
X142.24Y-119.38
X132.08Y-76.755
X132.08Y-79.295
X132.08Y-81.835
X132.08Y-84.375
X132.08Y-86.915
X132.08Y-89.455
X132.08Y-91.995
X132.08Y-94.535
X132.08Y-97.075
X132.08Y-99.615
X132.08Y-102.155
X132.08Y-104.695
X132.08Y-107.235
X132.08Y-109.775
X132.08Y-112.315
T0
M30
