%TF.GenerationSoftware,KiCad,Pcbnew,(5.1.6-0)*%
%TF.CreationDate,2022-10-03T16:44:33+02:00*%
%TF.ProjectId,Ouidire_v1,4f756964-6972-4655-9f76-312e6b696361,rev?*%
%TF.SameCoordinates,Original*%
%TF.FileFunction,Soldermask,Bot*%
%TF.FilePolarity,Negative*%
%FSLAX46Y46*%
G04 Gerber Fmt 4.6, Leading zero omitted, Abs format (unit mm)*
G04 Created by KiCad (PCBNEW (5.1.6-0)) date 2022-10-03 16:44:33*
%MOMM*%
%LPD*%
G01*
G04 APERTURE LIST*
%ADD10R,1.800000X1.800000*%
%ADD11O,1.800000X1.800000*%
%ADD12R,1.700000X1.700000*%
%ADD13O,1.700000X1.700000*%
G04 APERTURE END LIST*
D10*
%TO.C,PCM5102*%
X127000000Y-76755001D03*
D11*
X127000000Y-79295001D03*
X127000000Y-81835001D03*
X127000000Y-84375001D03*
X127000000Y-86915001D03*
X127000000Y-89455001D03*
%TD*%
D10*
%TO.C,JST_LedBtn1*%
X148590000Y-112268000D03*
D11*
X148590000Y-109728000D03*
X148590000Y-107188000D03*
X148590000Y-104648000D03*
%TD*%
%TO.C,Coil1*%
X142240000Y-119380000D03*
D10*
X142240000Y-116840000D03*
%TD*%
%TO.C,Coil2*%
X153670000Y-127000000D03*
D11*
X151130000Y-127000000D03*
%TD*%
D12*
%TO.C,D1*%
X147320000Y-124460000D03*
D13*
X147320000Y-116840000D03*
%TD*%
D10*
%TO.C,VUSB+*%
X154940000Y-116840000D03*
%TD*%
D11*
%TO.C,SeeedRFID1*%
X132080000Y-132080000D03*
X132080000Y-129540000D03*
X132080000Y-127000000D03*
X132080000Y-124460000D03*
X132080000Y-121920000D03*
D10*
X132080000Y-119380000D03*
%TD*%
%TO.C,TTGO_T8_V1.7_L1*%
X154940000Y-76755001D03*
D11*
X154940000Y-79295001D03*
X154940000Y-81835001D03*
X154940000Y-84375001D03*
X154940000Y-86915001D03*
X154940000Y-89455001D03*
X154940000Y-91995001D03*
X154940000Y-94535001D03*
X154940000Y-97075001D03*
X154940000Y-99615001D03*
X154940000Y-102155001D03*
X154940000Y-104695001D03*
X154940000Y-107235001D03*
X154940000Y-109775001D03*
X154940000Y-112315001D03*
%TD*%
%TO.C,TTGO_T8_V1.7_R1*%
X132080000Y-112315001D03*
X132080000Y-109775001D03*
X132080000Y-107235001D03*
X132080000Y-104695001D03*
X132080000Y-102155001D03*
X132080000Y-99615001D03*
X132080000Y-97075001D03*
X132080000Y-94535001D03*
X132080000Y-91995001D03*
X132080000Y-89455001D03*
X132080000Y-86915001D03*
X132080000Y-84375001D03*
X132080000Y-81835001D03*
X132080000Y-79295001D03*
D10*
X132080000Y-76755001D03*
%TD*%
M02*
